<?xml version="1.0" encoding="utf-8"?>
<!-- Generator: Adobe Illustrator 16.0.0, SVG Export Plug-In . SVG Version: 6.00 Build 0)  -->
<!DOCTYPE svg PUBLIC "-//W3C//DTD SVG 1.1//EN" "http://www.w3.org/Graphics/SVG/1.1/DTD/svg11.dtd">
<svg version="1.1" id="Layer_1" xmlns="http://www.w3.org/2000/svg" xmlns:xlink="http://www.w3.org/1999/xlink" x="0px" y="0px"
	 width="28.755px" height="28.773px" viewBox="0 0 28.755 28.773" enable-background="new 0 0 28.755 28.773" xml:space="preserve">
<g>
	<path fill="#FFFFFF" d="M22.071,12.951h1.795c0.318,0,0.576-0.257,0.576-0.575V10.65c0-0.318-0.258-0.575-0.576-0.575h-1.795
		c-0.319,0-0.575,0.257-0.575,0.575v1.726C21.496,12.693,21.752,12.951,22.071,12.951z"/>
	<path fill="#FFFFFF" d="M22.071,18.702h1.795c0.318,0,0.576-0.258,0.576-0.574v-1.727c0-0.316-0.258-0.574-0.576-0.574h-1.795
		c-0.319,0-0.575,0.258-0.575,0.574v1.727C21.496,18.444,21.752,18.702,22.071,18.702z"/>
	<path fill="#FFFFFF" d="M27.318,2.886H15.814V0.576c0-0.379-0.36-0.655-0.726-0.555L0.424,4.208C0.174,4.276,0,4.504,0,4.763v19.25
		c0,0.259,0.174,0.487,0.424,0.556l14.665,4.184c0.365,0.1,0.726-0.176,0.726-0.556v-2.82h11.504c0.793,0,1.437-0.643,1.437-1.438
		V4.324C28.755,3.529,28.111,2.886,27.318,2.886z M12.605,17.78c0.51,0.611,0.428,1.518-0.184,2.025
		c-0.269,0.224-1.189,0.693-2.024-0.184l-2.491-2.988l-2.489,2.988c-0.834,0.899-1.755,0.407-2.024,0.184
		C2.783,19.297,2.7,18.391,3.21,17.78l2.825-3.393L3.21,10.995C2.7,10.384,2.783,9.477,3.393,8.968
		c0.61-0.507,1.517-0.425,2.024,0.184l2.489,2.989l2.491-2.989c0.507-0.609,1.415-0.691,2.024-0.184
		c0.611,0.509,0.693,1.416,0.184,2.027l-2.826,3.392L12.605,17.78z M25.879,22.5H15.814v-3.799h2.302
		c0.317,0,0.574-0.258,0.574-0.574v-1.727c0-0.316-0.257-0.574-0.574-0.574h-2.302v-2.876h2.302c0.317,0,0.574-0.257,0.574-0.575
		V10.65c0-0.318-0.257-0.575-0.574-0.575h-2.302V5.762h10.064V22.5z"/>
</g>
</svg>
