<?xml version="1.0" encoding="utf-8"?>
<!-- Generator: Adobe Illustrator 16.0.0, SVG Export Plug-In . SVG Version: 6.00 Build 0)  -->
<!DOCTYPE svg PUBLIC "-//W3C//DTD SVG 1.1//EN" "http://www.w3.org/Graphics/SVG/1.1/DTD/svg11.dtd">
<svg version="1.1" id="Layer_1" xmlns="http://www.w3.org/2000/svg" xmlns:xlink="http://www.w3.org/1999/xlink" x="0px" y="0px"
	 width="24px" height="32px" viewBox="0 0 24 32" enable-background="new 0 0 24 32" xml:space="preserve">
<path fill="#808080" d="M17.414,0H11C7.141,0,4,3.141,4,7v14c0,2.205,1.794,4,4,4s4-1.795,4-4V8h-2v13c0,1.104-0.898,2-2,2
	c-1.103,0-2-0.896-2-2V7c0-2.757,2.243-5,5-5h5v6h6v22H2V2h2V0H0v32h24V6.586L17.414,0z M18,3.414L20.586,6H18V3.414z"/>
</svg>
