<?xml version="1.0" encoding="utf-8"?>
<!-- Generator: Adobe Illustrator 16.0.0, SVG Export Plug-In . SVG Version: 6.00 Build 0)  -->
<!DOCTYPE svg PUBLIC "-//W3C//DTD SVG 1.1//EN" "http://www.w3.org/Graphics/SVG/1.1/DTD/svg11.dtd">
<svg version="1.1" id="Layer_1" xmlns="http://www.w3.org/2000/svg" xmlns:xlink="http://www.w3.org/1999/xlink" x="0px" y="0px"
	 width="33.466px" height="25.913px" viewBox="0 0 33.466 25.913" enable-background="new 0 0 33.466 25.913" xml:space="preserve">
<g>
	<path fill="#7F7F7F" d="M0,0v25.913h33.466V0H0z M31.565,1.9v20.142l-9.393-9.394c-0.371-0.371-0.973-0.371-1.344,0l-2.991,2.99
		l-5.596-5.597c-0.371-0.371-0.973-0.371-1.344,0L1.9,19.038V1.9H31.565z M1.9,21.726l9.67-9.669l5.596,5.596v0.001h0.001
		l1.578,1.578c0.371,0.371,0.973,0.371,1.344,0s0.371-0.973,0-1.344l-0.907-0.906l2.319-2.318l9.349,9.35H1.9V21.726z"/>
	<path fill="#7F7F7F" d="M22.003,11.706c2.201,0,3.992-1.791,3.992-3.992s-1.791-3.992-3.992-3.992s-3.992,1.791-3.992,3.992
		S19.802,11.706,22.003,11.706z M22.003,5.623c1.153,0,2.092,0.938,2.092,2.091s-0.938,2.091-2.092,2.091s-2.092-0.938-2.092-2.091
		S20.85,5.623,22.003,5.623z"/>
</g>
</svg>
