<?xml version="1.0" encoding="utf-8"?>
<!-- Generator: Adobe Illustrator 16.0.0, SVG Export Plug-In . SVG Version: 6.00 Build 0)  -->
<!DOCTYPE svg PUBLIC "-//W3C//DTD SVG 1.1//EN" "http://www.w3.org/Graphics/SVG/1.1/DTD/svg11.dtd">
<svg version="1.1" id="Layer_1" xmlns="http://www.w3.org/2000/svg" xmlns:xlink="http://www.w3.org/1999/xlink" x="0px" y="0px"
	 width="24.937px" height="24.937px" viewBox="0 0 24.937 24.937" enable-background="new 0 0 24.937 24.937" xml:space="preserve">
<path fill="#808080" d="M24.937,23.101l-6.355-6.355c1.368-1.759,2.192-3.962,2.192-6.358C20.773,4.66,16.114,0,10.387,0
	S0,4.66,0,10.387c0,5.727,4.659,10.386,10.387,10.386c2.396,0,4.6-0.824,6.357-2.191l6.356,6.355L24.937,23.101z M10.387,18.177
	c-4.296,0-7.79-3.494-7.79-7.79s3.494-7.79,7.79-7.79c4.295,0,7.79,3.494,7.79,7.79S14.682,18.177,10.387,18.177z"/>
</svg>
